<svg xmlns="http://www.w3.org/2000/svg" version="1.1" xmlns:xlink="http://www.w3.org/1999/xlink" xmlns:svgjs="http://svgjs.dev/svgjs" width="1000" height="1000"><g clip-path="url(#SvgjsClipPath1672)"><rect width="1000" height="1000" fill="#232323"></rect><g transform="matrix(1.0449442115895924,0,0,1.0449442115895924,170.4245956646426,50)"><svg xmlns="http://www.w3.org/2000/svg" version="1.1" xmlns:xlink="http://www.w3.org/1999/xlink" xmlns:svgjs="http://svgjs.dev/svgjs" width="630.8" height="861.29"><svg id="Layer_2" data-name="Layer 2" xmlns="http://www.w3.org/2000/svg" viewBox="0 0 630.8 861.29">
  <defs>
    <style>
      .cls-1 {
        fill: #fff;
      }
    </style>
  <clipPath id="SvgjsClipPath1672"><rect width="1000" height="1000" x="0" y="0" rx="500" ry="500"></rect></clipPath></defs>
  <g id="Layer_1-2" data-name="Layer 1">
    <g>
      <path class="cls-1" d="M237.92,569.84c0-38.78-31.44-70.22-70.22-70.22s-70.22,31.44-70.22,70.22,31.44,70.22,70.22,70.22,70.22-31.44,70.22-70.22Zm-112.92-.38c0-23.58,19.12-42.7,42.7-42.7s42.7,19.11,42.7,42.7-19.12,42.7-42.7,42.7-42.7-19.12-42.7-42.7Z"></path>
      <path class="cls-1" d="M462.6,499.61c-38.78,0-70.22,31.44-70.22,70.22s31.44,70.22,70.22,70.22,70.22-31.44,70.22-70.22-31.44-70.22-70.22-70.22Zm0,112.54c-23.58,0-42.7-19.12-42.7-42.7s19.12-42.7,42.7-42.7,42.7,19.11,42.7,42.7-19.12,42.7-42.7,42.7Z"></path>
      <path class="cls-1" d="M615.78,435.15s0,0,0,0c0-.02-.01-.03-.02-.05-5.37-19.37-12.13-38.1-20.19-54.96-33.72-79.69-90.11-172.53-147.06-237.09,8.41,329.27-136.89,120.61-99.7-143.05-121.74,100.78-187.28,276.34-187.28,338.12-19.77-25.06-35.72-65.99-22.23-113.79C40.32,305.6-13.81,467.05,3.05,583.09c18.23,156.62,151.26,278.21,312.77,278.21,173.96,0,314.94-141.76,314.94-315.71,.58-33.27-4.61-73.04-14.97-110.43Zm-197.98-36.97c26.61-7.51,51.84,9.36,54.21,17.76,2.37,8.4-16.79,23.02-43.4,30.54-26.61,7.51-49.53,8.82-52.96-3.32s15.53-37.46,42.14-44.97Zm-262.34,17.76c2.37-8.4,27.6-25.28,54.21-17.76,26.61,7.51,45.57,32.83,42.14,44.97s-26.35,10.84-52.96,3.32c-26.61-7.51-45.77-22.14-43.4-30.54Zm-89,153.89c0-1.15,.05-2.28,.09-3.42-6.05-15.16-10.73-38.24-12.04-73.13,11.93,9.76,21.14,16.61,28.32,21.39,18.06-27.73,49.32-46.08,84.88-46.08,55.92,0,101.24,45.33,101.24,101.24s-45.33,101.24-101.24,101.24-101.24-45.33-101.24-101.24Zm267.7,257.85c-71.14,7.8-143.59-29.61-171.19-91.79,54.5-2.37,122.48-8.33,159.76-12.42,11.33-1.24,23.24-2.82,36.04-4.81l35.62,30.45,23.98-41.42c14.25-2.97,29.55-6.36,46.14-10.23-8.02,80.05-59.21,122.42-130.35,130.22Zm229.69-257.85c0,55.92-45.33,101.24-101.24,101.24s-101.24-45.33-101.24-101.24,45.33-101.24,101.24-101.24c35.57,0,66.84,18.36,84.9,46.11,7.18-4.78,16.4-11.63,28.36-21.41-1.31,34.99-6.02,58.1-12.09,73.26,.03,1.09,.08,2.18,.08,3.28Z"></path>
    </g>
  </g>
</svg></svg></g></g></svg>